<?xml version="1.0" encoding="UTF-8"?>
<!DOCTYPE svg PUBLIC "-//W3C//DTD SVG 1.1//EN" "http://www.w3.org/Graphics/SVG/1.1/DTD/svg11.dtd">
<!-- Creator: CorelDRAW 2018 -->
<svg xmlns="http://www.w3.org/2000/svg" xml:space="preserve" width="53.397mm" height="12.6276mm" version="1.1" style="shape-rendering:geometricPrecision; text-rendering:geometricPrecision; image-rendering:optimizeQuality; fill-rule:evenodd; clip-rule:evenodd"
viewBox="0 0 5339.7 1262.76"
 xmlns:xlink="http://www.w3.org/1999/xlink">
 <defs>
  <style type="text/css">
   <![CDATA[
    .fil0 {fill:white}
    .fil1 {fill:white;fill-rule:nonzero}
   ]]>
  </style>
 </defs>
 <g id="Layer_x0020_1">
  <metadata id="CorelCorpID_0Corel-Layer"/>
  <g id="_986170168">
   <path class="fil0" d="M777.65 0l273.38 157.83 273.4 157.85 0 315.7 0 315.69 -273.4 157.85 -273.38 157.84 -273.4 -157.84c-155.59,-89.83 -310.46,-179.25 -465.98,-269.03l0 -28.04 192.57 0 0 -107.09 -230.84 0 0 -138.77 230.84 0 0 -107.09 -192.57 0 0 -28.04c155.52,-89.79 310.39,-179.2 465.98,-269.03l273.4 -157.83zm0 215.48c229.69,0 415.89,186.2 415.89,415.9 0,229.69 -186.2,415.89 -415.89,415.89 -229.71,0 -415.92,-186.2 -415.92,-415.89 0,-229.7 186.21,-415.9 415.92,-415.9z"/>
   <path class="fil0" d="M777.64 306.06c179.66,0 325.31,145.65 325.31,325.31 0,179.67 -145.65,325.32 -325.31,325.32 -179.67,0 -325.32,-145.65 -325.32,-325.32 0,-179.66 145.65,-325.31 325.32,-325.31zm205.21 120.1c-8.76,-8.76 -22.96,-8.76 -31.73,0 -8.76,8.76 -8.76,22.97 0,31.73 8.77,8.76 22.97,8.76 31.73,0 8.76,-8.76 8.76,-22.97 0,-31.73zm-410.43 410.43c-8.76,-8.76 -8.76,-22.97 0,-31.73 8.76,-8.76 22.97,-8.76 31.73,0 8.76,8.76 8.76,22.97 0,31.73 -8.76,8.76 -22.97,8.76 -31.73,0zm495.44 -205.22c0,-12.39 -10.05,-22.43 -22.44,-22.43 -12.39,0 -22.44,10.04 -22.44,22.43 0,12.4 10.05,22.44 22.44,22.44 12.39,0 22.44,-10.04 22.44,-22.44zm-580.44 0c0,-12.39 10.04,-22.43 22.44,-22.43 12.39,0 22.43,10.04 22.43,22.43 0,12.4 -10.04,22.44 -22.43,22.44 -12.4,0 -22.44,-10.04 -22.44,-22.44zm495.43 205.22c8.76,-8.76 8.76,-22.97 0,-31.73 -8.76,-8.76 -22.96,-8.76 -31.73,0 -8.76,8.76 -8.76,22.97 0,31.73 8.77,8.76 22.97,8.76 31.73,0zm-410.43 -410.43c8.76,-8.76 22.97,-8.76 31.73,0 8.76,8.76 8.76,22.97 0,31.73 -8.76,8.76 -22.97,8.76 -31.73,0 -8.76,-8.76 -8.76,-22.97 0,-31.73zm205.22 495.43c12.39,0 22.43,-10.04 22.43,-22.43 0,-12.39 -10.04,-22.44 -22.43,-22.44 -12.39,0 -22.44,10.05 -22.44,22.44 0,12.39 10.05,22.43 22.44,22.43zm0 -580.43c12.39,0 22.43,10.04 22.43,22.43 0,12.39 -10.04,22.44 -22.43,22.44 -12.39,0 -22.44,-10.05 -22.44,-22.44 0,-12.39 10.05,-22.43 22.44,-22.43zm0 80.28c115.94,0 209.93,93.99 209.93,209.93 0,115.95 -93.99,209.94 -209.93,209.94 -115.94,0 -209.94,-93.99 -209.94,-209.94 0,-115.94 94,-209.93 209.94,-209.93z"/>
   <path class="fil1" d="M1751.55 310.12l0 119.86 -90.78 0 0 522.65 -131.32 0 0 -522.65 -91.66 0 0 -119.86 313.76 0zm130.6 110.16l55.53 27.33 0 505.02 -131.32 0 0 -642.51 336.68 0 0 642.51 -131.33 0 0 -532.35 -129.56 0zm519.13 381.64l-70.51 0 -20.28 150.71 -129.56 0 103.12 -642.51 50.24 0c27.04,0 48.79,2.8 65.23,8.37 16.44,5.56 29.23,13.07 38.34,22.47 9.11,9.4 15.73,20.29 19.83,32.62 4.09,12.32 7.68,24.94 9.69,37.89l83.73 541.16 -129.56 0 -20.27 -150.71zm-12.34 -90.79l-22.92 -168.33 -18.51 135.73 -44.95 32.6 86.38 0zm164.93 -126.91l181.47 0 0 119.86 -162.96 0 -18.51 -119.86zm474.74 -274.1l141.02 0 -112.81 321.69c3.52,2.35 7.66,5.66 12.34,9.7 4.03,3.5 8.72,7.99 13.65,13.22 4.95,5.24 10.26,11.75 15.43,19.38 15.88,23.42 28.2,51.13 37.02,82.86 8.82,31.73 15.7,62.31 20.27,91.65 5.31,34.01 8.23,68.75 8.81,104.01l-134.84 0c1.76,-32.91 0.77,-64.69 -2.65,-95.19 -2.94,-26.39 -8.82,-53.18 -17.62,-80.21 -8.81,-27.02 -22.84,-49.83 -42.31,-67.86 -4.53,-4.2 -9.3,-7.69 -13.67,-10.57 -4.35,-2.89 -8.48,-5.23 -11.89,-7.05 -4.13,-2.19 -8.23,-3.82 -12.34,-4.41l0 265.29 -131.32 0 0 -642.51 131.32 0 0 245.9 -56.41 31.73 67.87 0 88.13 -277.63zm427.46 0c12.93,0 26.34,1.95 40.11,5.72 13.75,3.77 26.58,10.43 38.33,19.83 11.76,9.4 21.45,22.04 29.09,37.91 7.64,15.86 11.45,36.23 11.45,60.81l0 208c0,14 -1.91,28.5 -5.73,43.19 -3.82,14.68 -10.33,28.1 -19.39,40.09 -9.04,12 -21.3,21.91 -36.57,29.54 -15.27,7.63 -34.48,11.45 -57.29,11.45l-91.66 0 0 185.97 -127.8 0 0 -642.51 219.46 0zm-0.88 135.72c0,-8.22 -2.64,-15.42 -7.93,-21.59 -5.29,-6.17 -14.79,-9.25 -28.21,-9.25l-54.64 0 0 212.41 -46.71 27.32 101.35 0c15.28,0 25.13,-3.53 29.53,-10.57 4.41,-7.05 6.61,-13.82 6.61,-20.28l0 -178.04zm196.54 -135.72l271.46 0 0 119.86 -140.13 0 0 152.48 80.19 0 0 110.16 -80.19 0 0 110.18 -52.01 29.96 192.14 0 0 119.87 -271.46 0 0 -642.51zm409.83 110.16l55.53 27.33 0 505.02 -131.32 0 0 -642.51 336.68 0 0 642.51 -131.33 0 0 -532.35 -129.56 0zm330.51 -110.16l271.46 0 0 119.86 -140.13 0 0 152.48 80.2 0 0 110.16 -80.2 0 0 110.18 -52.01 29.96 192.14 0 0 119.87 -271.46 0 0 -642.51zm575.7 277.63l0 -277.63 131.32 0 0 245.9 -56.41 31.73 67.87 0 88.14 -277.63 141.01 0 -112.81 321.69c3.53,2.35 7.66,5.65 12.33,9.7 4.04,3.5 8.73,7.98 13.67,13.22 4.95,5.24 10.25,11.74 15.42,19.38 15.89,23.42 28.25,51.18 37.02,82.86 8.76,31.68 15.69,62.31 20.28,91.65 5.31,34.02 8.22,68.75 8.8,104.01l-134.85 0c1.77,-32.91 0.77,-64.68 -2.64,-95.19 -2.96,-26.39 -8.85,-53.22 -17.62,-80.21 -8.77,-26.98 -22.84,-49.82 -42.31,-67.86 -4.54,-4.19 -9.31,-7.68 -13.67,-10.57 -4.36,-2.89 -8.47,-5.23 -11.9,-7.05 -4.12,-2.2 -8.22,-3.82 -12.33,-4.41l0 265.29 -131.32 0 0 -265.29c-4.11,0.59 -8.21,2.2 -12.35,4.41 -3.41,1.82 -7.53,4.15 -11.89,7.05 -4.37,2.88 -9.12,6.38 -13.66,10.57 -19.47,18.04 -33.54,40.88 -42.31,67.86 -8.77,26.99 -14.66,53.82 -17.62,80.21 -3.42,30.51 -4.41,62.28 -2.64,95.19l-134.85 0c0.58,-35.26 3.48,-69.99 8.8,-104.01 4.58,-29.34 11.52,-59.97 20.28,-91.65 8.77,-31.68 21.13,-59.44 37.02,-82.86 5.17,-7.64 10.47,-14.14 15.42,-19.38 4.94,-5.24 9.63,-9.72 13.66,-13.22 4.68,-4.05 8.81,-7.35 12.34,-9.7l-112.81 -321.69 141.01 0 88.14 277.63 11.46 0z"/>
  </g>
 </g>
</svg>
